<svg xmlns="http://www.w3.org/2000/svg" xml:space="preserve" style="fill-rule:evenodd;clip-rule:evenodd;stroke-linejoin:round;stroke-miterlimit:2" viewBox="0 0 522 347"><path d="M1139.93 0h512v512h-512z" style="fill:none" transform="matrix(1.01873 0 0 .67587 -1161.28 0)"/><path d="m1252.93 191.571 11.2-30.797h2.81l-11.2 30.797h9.84l23.86-65.625h-9.84l-9.94 27.328h-2.81l9.94-27.328h-9.85l-23.86 65.625zM1282.41 192.508c5.02 0 8.49-2.906 10.64-8.812l10.13-27.563c3.28-8.953-1.32-14.719-9.28-14.719-5.02 0-8.44 2.86-10.64 8.813l-10.13 27.562c-3.28 8.954 1.31 14.719 9.28 14.719m-.47-7.5c-.98 0-1.45-.89-.93-2.344l11.62-31.828c.47-1.312.94-1.922 1.73-1.922.99 0 1.46.891.94 2.344l-11.62 31.828c-.47 1.313-.94 1.922-1.74 1.922M1318.51 141.414c-5.02 0-8.44 2.86-10.65 8.813l-10.12 27.562c-3.28 8.954 1.31 14.719 9.28 14.719 5.02 0 8.3-2.812 10.64-8.812l2.77-7.032-8.21-3.937-3.93 10.359c-.52 1.313-.94 1.922-1.74 1.922-.98 0-1.45-.89-.94-2.344l4.6-12.515h12.33c1.73-4.688 3.51-9.328 5.25-14.016 3.32-8.859-1.32-14.719-9.28-14.719m-3.15 22.032h-2.71l4.59-12.61c.47-1.312.94-1.922 1.73-1.922.99 0 1.46.891.94 2.344z" style="fill-rule:nonzero" transform="translate(-1170.74 -122.13)"/><path d="m1229.61 191.571 10.97-26.813c1.73-4.265 4.03-10.125 7.4-19.078l1.03.281c-2.86 8.672-4.68 14.532-5.95 18.797l-7.83 26.813h10.36l30.42-65.625h-9.7l-13.17 31.5a665 665 0 0 0-7.03 17.578l-1.03-.281c2.95-7.969 4.45-12.422 6-17.297l9.89-31.5h-10.04l-13.31 31.5c-2.06 4.875-3.84 9.328-6.94 17.578l-1.03-.281c2.91-7.969 4.41-12.422 5.96-17.297l9.89-31.5h-9.28l-16.97 65.625zM1271.14 191.571l2.9-7.969h-7.59l8.34-22.922h6.19l2.72-7.5h-6.19l7.03-19.266h7.13l2.86-7.968h-16.97l-23.86 65.625zM1282.9 191.571l11.39-31.313h.29c1.73 0 1.78.703-1.13 9.141l-2.91 8.437c-2.9 8.438-3.56 10.782-4.17 13.735h10.5l.42-.938c-.46-1.359 0-3.281 2.96-12.328l2.95-9.047c2.95-9.047 1.69-10.922-1.31-11.906l.09-.938c4.92-.328 7.08-2.109 8.81-6.843l4.5-12.235c2.68-7.312-.46-11.39-8.15-11.39h-10.22l-23.86 65.625zm21.14-58.125h.8c1.31 0 1.74.797 1.22 2.203l-5.44 15c-.51 1.406-1.26 2.109-2.34 2.109h-1.27zM1308.36 191.571l9.28-25.594 4.17-6.375-8.48 31.969h9.51l9.61-42.516 14.25-23.109h-9.23l-15.99 27.797-.89-.422c5.25-10.688 7.64-16.266 9.75-22.125l1.88-5.25h-9.85l-23.86 65.625zM1339.39 191.571l21-57.657h6.23l2.86-7.968h-22.31l-2.86 7.968h6.23l-21 57.657z" style="fill-rule:nonzero" transform="translate(-976.624 150.783)"/><path d="m3814.93 348.984 5.62 5.707 172.14-.009 52.5-144.111 15.63.013 14.98-41.805-5.69-5.749-15.01 41.813-15.73.026-53.27 142.763-165.63-.257z" style="fill:#323232" transform="translate(-3813.027 -84.713)"/><path d="m3976.55 203.102 16.75.032-2.84 7.485-6.56-.029-7.8 21.073-9.99-.079z" style="fill:#323232" transform="translate(-3813.027 -84.713)"/><path d="m3976.55 203.102 16.75.032-2.84 7.485-6.46-.038-11.13 30.539-9.99-.079z" style="fill:#323232" transform="translate(-3837.557 -17.735)"/><path d="m3976.55 203.102 16.75.032-2.84 7.485-6.56-.029-7.8 21.073-9.99-.079z" style="fill:#323232" transform="translate(-3590.798 -84.713)"/><path d="m3976.55 203.102 16.75.032-2.84 7.485-6.46-.038-11.13 30.539-9.99-.079z" style="fill:#323232" transform="translate(-3615.327 -17.735)"/><path d="m4021.5 348.984 5.66 5.707h187.78l52.53-144.094h15.62l15.03-41.919-5.7-5.69-7.15 6.834-13.72 29.084-16.73 2.157-51.7 141.701-174.86-.236" style="fill:#323232" transform="translate(-3813.027 -84.713)"/><path d="m1098.22 191.571 28-76.993h7.04l-28.01 76.993h24.61l59.65-164.063h-24.61l-24.85 68.32h-7.03l24.84-68.32h-24.6l-59.65 164.063z" style="fill:#fff;fill-rule:nonzero" transform="translate(-1056.108 61.747)"/><path d="M149.1 78.255 81.45 264.32H1.79L69.44 78.255zM42.11 253.32l28-76.994h7.04L49.14 253.32h24.61L133.4 89.255h-24.61l-24.85 68.32h-7.03l24.84-68.32h-24.6L17.5 253.32z"/><path d="m1180.01 191.571 7.27-19.922h-18.99l20.86-57.305h15.47l6.8-18.75h-15.47l17.58-48.164h17.81l7.15-19.922h-42.42l-59.65 164.063z" style="fill:#fff;fill-rule:nonzero" transform="translate(-1056.108 61.747)"/><path d="M155.56 146.341H171l-14.77 40.75h-15.48l-12.86 35.306h19l-15.29 41.922h-67l67.65-186.064h65.76l-15.04 41.922h-17.86zM123.9 253.32l7.27-19.922h-18.99l20.86-57.306h15.47l6.8-18.75h-15.47l17.58-48.164h17.81l7.15-19.922h-42.42L80.31 253.32z"/><path d="m1222.32 191.571 52.5-144.141h15.58l7.15-19.922h-55.78l-7.15 19.922h15.59l-52.5 144.141z" style="fill:#fff;fill-rule:nonzero" transform="translate(-1056.108 61.747)"/><path d="M178.39 120.177h-15.51l15.04-41.922h79.16l-15.05 41.922h-15.62l-52.5 144.142h-48.02zM166.21 253.32l52.5-144.142h15.58l7.15-19.922h-55.78l-7.15 19.922h15.59L141.6 253.32z"/><path d="m1304.82 191.571 6.09-16.758c10.78-29.766 26.37-81.563 33.75-107.344l2.7.586c-6.33 24.961-9.03 36.211-10.78 44.531l-16.88 78.985h32.46l59.65-164.063h-24.61l-9.49 27.305c-9.38 26.836-20.98 63.281-30.12 94.922l-2.58-.703c4.81-17.813 8.21-32.11 9.96-40.196l17.93-81.328h-33.04l-59.65 164.063z" style="fill:#fff;fill-rule:nonzero" transform="translate(-1056.108 61.747)"/><path d="M371.4 78.255 303.76 264.32H208.4l67.64-186.064zM248.71 253.32l6.09-16.758c10.78-29.766 26.37-81.564 33.75-107.345l2.7.586c-6.33 24.961-9.03 36.211-10.78 44.531l-16.88 78.986h32.46L355.7 89.255h-24.61l-9.49 27.305c-9.38 26.836-20.98 63.282-30.12 94.923l-2.58-.703c4.81-17.813 8.21-32.11 9.96-40.197l17.93-81.328h-33.04L224.1 253.32z"/><path d="m1402.32 191.571 7.26-19.922h-18.98l20.86-57.305h15.47l6.79-18.75h-15.46l17.57-48.164h17.82l7.14-19.922h-42.42l-59.65 164.063z" style="fill:#fff;fill-rule:nonzero" transform="translate(-1056.108 61.747)"/><path d="M377.87 146.341h15.43l-14.77 40.75h-15.48l-12.85 35.306h18.99l-15.28 41.922h-67l67.65-186.064h65.76l-15.05 41.922h-17.85zM346.21 253.32l7.26-19.922h-18.98l20.86-57.306h15.47l6.79-18.75h-15.46l17.57-48.164h17.82l7.14-19.922h-42.42L302.61 253.32z"/><path d="m1444.62 191.571 52.5-144.141h15.59l7.15-19.922h-55.78l-7.15 19.922h15.58l-52.5 144.141z" style="fill:#fff;fill-rule:nonzero" transform="translate(-1056.108 61.747)"/><path d="M400.69 120.177h-15.51l15.05-41.922h79.15l-15.04 41.922h-15.63l-52.5 144.142h-48.02zM388.51 253.32l52.5-144.142h15.59l7.15-19.922h-55.78l-7.15 19.922h15.58L363.9 253.32z"/><path d="m1777.11 456.137-.43-132.424 85.71 89.707-32.69 6.703 23.4 38.765-22.85 13.572-23.02-41.322z" style="fill:#fff" transform="translate(-1363.404 -144.769)"/><path d="m413.074 178.445 86.3 90.33-32.77 6.719 23.37 38.695-23.2 13.78-23-41.291-30.27 25.115zm.63 132.924 30.12-25 23.02 41.323 22.85-13.572-23.4-38.765 32.69-6.703-85.71-89.707z"/><path d="m1766.09 297.434 117.01 122.459-36.73 7.53 21.19 35.092-41.23 24.486-22.12-39.71-37.53 31.144zm21.45 136.404 12.99-10.78 9.73-8.073 23.91 42.935 4.48-2.659-25.63-42.438 28.66-5.876-54.41-56.955z" style="fill:#fff" transform="translate(-1363.404 -144.769)"/><path d="m408.734 167.683 99.12 103.744-34.42 7.057 22.46 37.19-30.73 18.25-22.63-40.631-33.3 27.632zm9.44 134.129 26.95-22.365 23.4 42.014 14.98-8.895-24.36-40.34 30.97-6.348-72.3-75.67z"/></svg>
