<svg xmlns="http://www.w3.org/2000/svg" xml:space="preserve" style="fill-rule:evenodd;clip-rule:evenodd;stroke-linejoin:round;stroke-miterlimit:2" viewBox="0 0 538 354"><path d="M4703.56 88.528h537.334v353.449H4703.56z" style="fill:none" transform="translate(-4703.561 -88.528)"/><path d="m5053.01 277.6-5.63-.139-10.81 29.837-7.56 7.776-4.26-9.51 13.39-36.778 20.02 1.074M5077.33 210.537h-5.64l-7.48 20.829-9.2.179 8.57-27.411 17.17-.665zM4952.55 163.233l5.07 5.072-15.11 42.232h-17.05l-7.29 20.535 6.85.098 6.16 6.16-16.09 40.513h-14l-10.64 29.267 11.04.132 2.73 2.727-11.06 31.289-8.72 2.143 5.62-29.92-14.43-5.127 18.01-41.417 12.81-1.241 7.32-28.689-8.95-1.155 11.43-36.832 14.02 1.313 14.47-32.184" style="fill:#323232" transform="translate(-4705.971 -82.857)"/><path d="m4712.61 348.894 5.64 5.635h362.35l52.6-144.292h15.53l14.95-41.434-5.57-5.57-7.43 4.647-14.07 31.171-15.13-.077-51.03 142.618h-342.29zM4749.6 204.809l5.72 5.728h9.41l4.86-8.913-14.56.037z" style="fill:#323232" transform="translate(-4705.971 -82.857)"/><path d="m1246.6 191.571 11.2-30.797h2.81l-11.2 30.797h9.85l23.85-65.625h-9.84l-9.94 27.328h-2.81l9.94-27.328h-9.85l-23.85 65.625zM1276.08 192.508c5.02 0 8.49-2.906 10.64-8.812l10.13-27.563c3.28-8.953-1.31-14.719-9.28-14.719-5.02 0-8.44 2.86-10.64 8.813l-10.13 27.562c-3.28 8.954 1.31 14.719 9.28 14.719m-.47-7.5c-.98 0-1.45-.89-.93-2.344l11.62-31.828c.47-1.312.94-1.922 1.74-1.922.98 0 1.45.891.93 2.344l-11.62 31.828c-.47 1.313-.94 1.922-1.74 1.922M1301.82 191.571l8.15-19.922c1.27-3.047 2.58-6.375 4.88-12.656l1.03.234c-2.06 6.047-3.09 9.375-3.98 12.422l-5.77 19.922h11.48l22.83-49.219h-9.61l-8.81 21.094c-1.73 4.078-3 7.406-4.83 12.468l-1.03-.281c1.78-4.781 2.91-8.109 4.17-12.187l6.52-21.094h-10.36l-8.86 21.094c-1.73 4.078-3 7.406-4.83 12.468l-1.03-.281c1.74-4.781 2.86-8.109 4.13-12.187l6.51-21.094h-9.33l-12.75 49.219z" style="fill-rule:nonzero" transform="translate(-1176.061 -120.275)"/><path d="m1226.37 191.571 10.97-26.813c1.74-4.265 4.03-10.125 7.41-19.078l1.03.281c-2.86 8.672-4.69 14.532-5.95 18.797l-7.83 26.813h10.36l30.42-65.625h-9.7l-13.18 31.5a743 743 0 0 0-7.03 17.578l-1.03-.281c2.95-7.969 4.45-12.422 6-17.297l9.89-31.5h-10.03l-13.31 31.5c-2.06 4.875-3.85 9.328-6.94 17.578l-1.03-.281c2.91-7.969 4.41-12.422 5.95-17.297l9.89-31.5h-9.28l-16.97 65.625zM1264.48 192.508c5.58 0 9.1-3 11.3-9l15.94-43.5c3.32-9.14-1.32-15-9-15-5.58 0-9.05 2.906-11.3 9l-15.94 43.5c-3.33 9.141 1.31 15 9 15m-.05-7.64c-.98 0-1.45-.938-.93-2.391l17.48-47.859c.52-1.36.94-1.969 1.78-1.969.99 0 1.46.937.94 2.39l-17.48 47.86c-.47 1.312-.94 1.969-1.79 1.969M1285.34 191.571l11.39-31.313h.28c1.74 0 1.78.703-1.12 9.141l-2.91 8.437c-2.9 8.438-3.56 10.782-4.17 13.735h10.5l.42-.938c-.47-1.359 0-3.281 2.95-12.328l2.96-9.047c2.95-9.047 1.69-10.922-1.31-11.906l.09-.938c4.92-.328 7.08-2.109 8.81-6.843l4.5-12.235c2.67-7.312-.47-11.39-8.15-11.39h-10.22l-23.86 65.625zm21.14-58.125h.8c1.31 0 1.73.797 1.22 2.203l-5.44 15c-.52 1.406-1.27 2.109-2.34 2.109h-1.27zM1310.79 191.571l9.29-25.594 4.17-6.375-8.49 31.969h9.52l9.61-42.516 14.25-23.109h-9.24l-15.98 27.797-.89-.422c5.25-10.688 7.64-16.266 9.75-22.125l1.87-5.25h-9.84l-23.86 65.625zM1339.95 192.508c5.86 0 9.14-3.047 11.81-10.312 2.96-8.016 2.86-15.469 2.3-23.063l-.56-7.594c-.57-7.593 1.22-12.703 2.48-16.171.8-2.204 1.27-3.235 2.16-3.235 1.12 0 1.26 1.172.51 3.235l-3.65 10.125 9.56-.704 3.14-8.531c2.53-6.89-1.78-11.25-8.77-11.25-6.56 0-9.56 3-12.6 11.391-2.11 5.859-2.02 11.437-1.6 18.984l.42 7.594c.43 7.594-.7 13.219-2.86 19.125-.84 2.297-1.4 3.141-2.25 3.141-1.07 0-1.26-1.172-.42-3.563l4.08-11.297-9.84.703-3.43 9.422c-2.53 6.938 1.74 12 9.52 12" style="fill-rule:nonzero" transform="translate(-983.951 146.639)"/><path d="m1120.72 191.571 52.5-144.141h15.58l7.15-19.922h-55.78l-7.15 19.922h15.59l-52.5 144.141z" style="fill:#fff" transform="translate(-1073.921 63.603)"/><path d="M58.969 122.033h-15.5l15.04-41.922h79.15l-15.04 41.922h-15.62l-52.5 144.141H6.469zm-12.17 133.141 52.5-144.141h15.58l7.15-19.922h-55.78l-7.15 19.922h15.59l-52.5 144.141z"/><path d="m1164.78 191.571 28.01-76.993h7.03l-28.01 76.993h24.61l59.65-164.063h-24.61l-24.85 68.32h-7.03l24.85-68.32h-24.61l-59.65 164.063z" style="fill:#fff" transform="translate(-1073.921 63.603)"/><path d="m197.849 80.111-67.65 186.063h-79.66l67.65-186.063zM90.859 255.174l28.01-76.993h7.03l-28.01 76.993h24.61l59.65-164.063h-24.61l-24.85 68.32h-7.03l24.85-68.32h-24.61l-59.65 164.063z"/><path d="m1246.58 191.571 7.26-19.922h-18.98l20.86-57.305h15.46l6.8-18.75h-15.47l17.58-48.164h17.81l7.15-19.922h-42.42l-59.65 164.063z" style="fill:#fff" transform="translate(-1073.921 63.603)"/><path d="M204.319 148.197h15.43l-14.77 40.75h-15.48l-12.85 35.305h18.99l-15.29 41.922h-66.99l67.64-186.063h65.77l-15.05 41.922h-17.85zm-31.66 106.977 7.26-19.922h-18.98l20.86-57.305h15.46l6.8-18.75h-15.47l17.58-48.164h17.81l7.15-19.922h-42.42l-59.65 164.063z"/><path d="m1295.21 191.571 6.09-16.758c10.78-29.766 26.37-81.563 33.75-107.344l2.7.586c-6.33 24.961-9.03 36.211-10.78 44.531l-16.88 78.985h32.46l59.65-164.063h-24.61l-9.49 27.305c-9.38 26.836-20.98 63.281-30.12 94.922l-2.58-.703c4.81-17.813 8.21-32.11 9.96-40.196l17.93-81.328h-33.04l-59.65 164.063z" style="fill:#fff" transform="translate(-1073.921 63.603)"/><path d="m343.979 80.111-67.64 186.063h-95.37l67.65-186.063zm-122.69 175.063 6.09-16.758c10.78-29.766 26.37-81.563 33.75-107.344l2.7.586c-6.33 24.961-9.03 36.211-10.78 44.531l-16.88 78.985h32.46l59.65-164.063h-24.61l-9.49 27.305c-9.38 26.836-20.98 63.281-30.12 94.922l-2.58-.703c4.81-17.813 8.21-32.11 9.96-40.196l17.93-81.328h-33.04l-59.65 164.063z"/><path d="m1392.71 191.571 7.26-19.922h-18.98l20.86-57.305h15.47l6.79-18.75h-15.46l17.57-48.164h17.82l7.14-19.922h-42.42l-59.65 164.063z" style="fill:#fff" transform="translate(-1073.921 63.603)"/><path d="M350.449 148.197h15.43l-14.77 40.75h-15.48l-12.85 35.305h18.99l-15.29 41.922h-66.99l67.65-186.063h65.76l-15.04 41.922h-17.86zm-31.66 106.977 7.26-19.922h-18.98l20.86-57.305h15.47l6.79-18.75h-15.46l17.57-48.164h17.82l7.14-19.922h-42.42l-59.65 164.063z"/><path d="m1435.01 191.571 52.5-144.141h15.59l7.15-19.922h-55.78l-7.15 19.922h15.58l-52.5 144.141z" style="fill:#fff" transform="translate(-1073.921 63.603)"/><path d="M373.269 122.033h-15.51l15.05-41.922h79.15l-15.04 41.922h-15.63l-52.5 144.141h-48.02zm-12.18 133.141 52.5-144.141h15.59l7.15-19.922h-55.78l-7.15 19.922h15.58l-52.5 144.141z"/><path d="m4623.32 906.571 13.92-.056-.56-44.76 20.93 14.538-27.59-111.853-27.79 111.904 20.75-14.589z" style="fill:#fff" transform="rotate(-19.867 1913.832 17488.73)scale(1.37926 .93679)"/><path d="m4610.87 890.38-30.59 21.514 49.78-200.463 49.34 200.07-30.03-20.864.43 33.975-38.66.155zm12.45 16.191 13.92-.056-.56-44.76 20.93 14.538-27.59-111.853-27.79 111.904 20.75-14.589z" style="fill:#fff" transform="rotate(-19.867 1913.832 17488.73)scale(1.37926 .93679)"/><path d="m447.972 326.068-9.777-26.121-27.863 28.25.596-158.379 101.21 121.361-39.097-3.69 13.068 34.176-35.015 12.76zm8.422-3.153 18.039-6.574-14.976-39.172 31.778 2.998-71.398-85.614-.423 111.617 22.272-22.58z"/></svg>
