<?xml version="1.0" encoding="UTF-8" standalone="no"?>
<!DOCTYPE svg PUBLIC "-//W3C//DTD SVG 1.1//EN" "http://www.w3.org/Graphics/SVG/1.1/DTD/svg11.dtd">
<svg width="100%" height="100%" viewBox="0 0 513 215" version="1.1" xmlns="http://www.w3.org/2000/svg" xmlns:xlink="http://www.w3.org/1999/xlink" xml:space="preserve" xmlns:serif="http://www.serif.com/" style="fill-rule:evenodd;clip-rule:evenodd;stroke-linejoin:round;stroke-miterlimit:2;">
    <g transform="matrix(1,0,0,1,0,-2058.3)">
        <g id="internet-infrastructuur-in-beeld" transform="matrix(1.00191,0,0,0.41902,-1142.1,2058.3)">
            <rect x="1139.93" y="0" width="512" height="512" style="fill:none;"/>
            <g transform="matrix(0.998095,0,0,2.38652,1164.41,-4732.84)">
                <path d="M-5.057,2030.27L-5.057,1997.61C-5.057,1991.45 -3.229,1988.89 0.568,1988.89L0.568,1988.01L-24.533,1988.01L-24.533,1988.89C-20.737,1988.89 -18.944,1991.45 -18.944,1997.61L-18.944,2030.27C-18.944,2036.42 -20.737,2038.98 -24.533,2038.98L-24.533,2039.86L0.568,2039.86L0.568,2038.98C-3.229,2038.98 -5.057,2036.42 -5.057,2030.27Z" style="fill-rule:nonzero;"/>
                <path d="M0.165,2039.86L20.942,2039.86L20.942,2039.06C18.692,2039.06 17.672,2036.94 17.672,2032.66L17.672,2010.37C17.672,2002.84 20.168,1998.87 23.227,1998.87C25.477,1998.87 26.637,2000.63 26.637,2003.76L26.637,2032.66C26.637,2036.94 25.618,2039.06 23.368,2039.06L23.368,2039.86L44.11,2039.86L44.11,2039.06C40.875,2039.06 39.434,2036.94 39.434,2032.66L39.434,2003.12C39.434,1996.31 35.954,1992.16 29.977,1992.16C23.122,1992.16 18.235,1997.08 16.618,2006.64L16.126,2006.64C17.075,2000.56 17.497,1996.44 17.497,1992.68L17.497,1991.7L16.969,1991.7C10.747,1993.88 5.157,1995.29 0.2,1995.92L0.2,1996.73C3.61,1996.44 4.84,1997.68 4.84,2001.47L4.84,2032.66C4.84,2036.94 3.399,2039.06 0.165,2039.06L0.165,2039.86Z" style="fill-rule:nonzero;"/>
                <path d="M60.406,2026.96L60.406,2000.28L69.441,2000.28L69.441,1993.32L60.089,1993.32L60.089,1983.16L59.316,1983.16C58.402,1989.91 52.003,1996.48 42.335,1999.68L42.335,2000.28L47.82,2000.28L47.82,2029.91C47.82,2036.88 51.23,2040.85 57.488,2040.85C65.468,2040.85 69.792,2034.27 69.792,2021.41L69.054,2021.41C69.054,2027.56 66.945,2031.22 63.57,2031.22C61.39,2031.22 60.406,2029.84 60.406,2026.96Z" style="fill-rule:nonzero;"/>
                <path d="M105.318,2020.21L104.545,2020.21C104.545,2026.15 100.361,2030.79 94.877,2030.79C87.775,2030.79 83.381,2023.23 83.381,2009.49L83.381,2009.35L105.389,2009.35C105.389,1997.99 99.166,1992.16 91.01,1992.16C79.373,1992.16 71.533,2002.18 71.533,2016.94C71.533,2031.64 78.811,2040.85 89.814,2040.85C99.728,2040.85 105.318,2033.36 105.318,2020.21ZM83.381,2008.05C83.557,1998.69 85.525,1993.63 88.795,1993.63C91.994,1993.63 93.893,1998.24 93.893,2006.61C93.893,2007.1 93.893,2007.56 93.857,2008.05L83.381,2008.05Z" style="fill-rule:nonzero;"/>
                <path d="M105.934,2039.86L131.774,2039.86L131.774,2038.88L129.981,2038.88C125.481,2038.88 123.442,2036.42 123.442,2031.32L123.442,2011.56C123.442,2004.71 125.727,1998.8 128.926,1997.08L128.926,1999.82C128.926,2004.32 131.598,2007.24 135.29,2007.24C139.051,2007.24 141.829,2004.39 141.829,2000.45C141.864,1995.71 138.77,1992.16 134.34,1992.16C127.344,1992.16 123.583,1998.8 122.317,2008.22L121.825,2008.22C122.669,2002.25 123.161,1996.69 123.161,1992.16L123.161,1991.7L122.669,1991.7C116.551,1993.88 110.997,1995.29 105.969,1995.92L105.969,1996.73C109.45,1996.44 110.61,1997.71 110.61,2001.47L110.61,2032.66C110.61,2036.94 109.169,2039.06 105.934,2039.06L105.934,2039.86Z" style="fill-rule:nonzero;"/>
                <path d="M141.039,2039.86L161.816,2039.86L161.816,2039.06C159.566,2039.06 158.546,2036.94 158.546,2032.66L158.546,2010.37C158.546,2002.84 161.042,1998.87 164.101,1998.87C166.351,1998.87 167.511,2000.63 167.511,2003.76L167.511,2032.66C167.511,2036.94 166.492,2039.06 164.242,2039.06L164.242,2039.86L184.984,2039.86L184.984,2039.06C181.749,2039.06 180.308,2036.94 180.308,2032.66L180.308,2003.12C180.308,1996.31 176.827,1992.16 170.851,1992.16C163.995,1992.16 159.109,1997.08 157.492,2006.64L156.999,2006.64C157.949,2000.56 158.371,1996.44 158.371,1992.68L158.371,1991.7L157.843,1991.7C151.621,1993.88 146.031,1995.29 141.074,1995.92L141.074,1996.73C144.484,1996.44 145.714,1997.68 145.714,2001.47L145.714,2032.66C145.714,2036.94 144.273,2039.06 141.039,2039.06L141.039,2039.86Z" style="fill-rule:nonzero;"/>
                <path d="M218.752,2020.21L217.979,2020.21C217.979,2026.15 213.795,2030.79 208.311,2030.79C201.209,2030.79 196.815,2023.23 196.815,2009.49L196.815,2009.35L218.822,2009.35C218.822,1997.99 212.6,1992.16 204.443,1992.16C192.807,1992.16 184.967,2002.18 184.967,2016.94C184.967,2031.64 192.244,2040.85 203.248,2040.85C213.162,2040.85 218.752,2033.36 218.752,2020.21ZM196.815,2008.05C196.99,1998.69 198.959,1993.63 202.229,1993.63C205.428,1993.63 207.326,1998.24 207.326,2006.61C207.326,2007.1 207.326,2007.56 207.291,2008.05L196.815,2008.05Z" style="fill-rule:nonzero;"/>
                <path d="M237.157,2026.96L237.157,2000.28L246.192,2000.28L246.192,1993.32L236.841,1993.32L236.841,1983.16L236.067,1983.16C235.153,1989.91 228.755,1996.48 219.087,1999.68L219.087,2000.28L224.571,2000.28L224.571,2029.91C224.571,2036.88 227.981,2040.85 234.239,2040.85C242.22,2040.85 246.544,2034.27 246.544,2021.41L245.805,2021.41C245.805,2027.56 243.696,2031.22 240.321,2031.22C238.141,2031.22 237.157,2029.84 237.157,2026.96Z" style="fill-rule:nonzero;"/>
                <path d="M-5.057,2106.27L-5.057,2073.61C-5.057,2067.45 -3.229,2064.89 0.568,2064.89L0.568,2064.01L-24.533,2064.01L-24.533,2064.89C-20.737,2064.89 -18.944,2067.45 -18.944,2073.61L-18.944,2106.27C-18.944,2112.42 -20.737,2114.98 -24.533,2114.98L-24.533,2115.86L0.568,2115.86L0.568,2114.98C-3.229,2114.98 -5.057,2112.42 -5.057,2106.27Z" style="fill-rule:nonzero;"/>
                <path d="M0.165,2115.86L20.942,2115.86L20.942,2115.05C18.692,2115.05 17.672,2112.95 17.672,2108.66L17.672,2086.37C17.672,2078.84 20.168,2074.87 23.227,2074.87C25.477,2074.87 26.637,2076.63 26.637,2079.76L26.637,2108.66C26.637,2112.95 25.618,2115.05 23.368,2115.05L23.368,2115.86L44.11,2115.86L44.11,2115.05C40.875,2115.05 39.434,2112.95 39.434,2108.66L39.434,2079.12C39.434,2072.3 35.954,2068.16 29.977,2068.16C23.122,2068.16 18.235,2073.08 16.618,2082.64L16.126,2082.64C17.075,2076.56 17.497,2072.45 17.497,2068.68L17.497,2067.7L16.969,2067.7C10.747,2069.88 5.157,2071.28 0.2,2071.92L0.2,2072.73C3.61,2072.45 4.84,2073.68 4.84,2077.47L4.84,2108.66C4.84,2112.95 3.399,2115.05 0.165,2115.05L0.165,2115.86Z" style="fill-rule:nonzero;"/>
                <path d="M43.601,2115.05L43.601,2115.86L67.929,2115.86L67.929,2115.05C62.972,2115.05 60.757,2112.95 60.757,2108.66L60.757,2081.34L72.429,2081.34L72.429,2074.38L60.757,2074.38L60.757,2073.15C60.757,2062.11 63.956,2057.93 69.968,2057.93L70.566,2057.93L70.566,2063.69C70.566,2068.47 72.886,2071.32 76.788,2071.32C80.198,2071.32 82.519,2068.89 82.519,2065.59C82.519,2060.21 77.316,2056.38 69.054,2056.41C57.523,2056.41 49.226,2064.15 48.347,2074.87L42.511,2080.81L42.511,2081.34L48.277,2081.34L48.277,2108.66C48.277,2112.95 46.835,2115.05 43.601,2115.05Z" style="fill-rule:nonzero;"/>
                <path d="M77.158,2115.86L102.998,2115.86L102.998,2114.88L101.205,2114.88C96.705,2114.88 94.666,2112.42 94.666,2107.32L94.666,2087.56C94.666,2080.71 96.951,2074.8 100.15,2073.08L100.15,2075.82C100.15,2080.32 102.822,2083.24 106.514,2083.24C110.275,2083.24 113.053,2080.39 113.053,2076.45C113.088,2071.71 109.994,2068.16 105.564,2068.16C98.568,2068.16 94.807,2074.8 93.541,2084.22L93.049,2084.22C93.893,2078.25 94.385,2072.69 94.385,2068.16L94.385,2067.7L93.893,2067.7C87.775,2069.88 82.221,2071.28 77.193,2071.92L77.193,2072.73C80.674,2072.45 81.834,2073.71 81.834,2077.47L81.834,2108.66C81.834,2112.95 80.393,2115.05 77.158,2115.05L77.158,2115.86Z" style="fill-rule:nonzero;"/>
                <path d="M135.501,2090.97L135.782,2090.97L135.782,2099.55C135.782,2104.61 133.637,2107.85 130.438,2107.85C127.872,2107.85 126.255,2105.81 126.255,2102.82C126.255,2098.22 129.524,2094.45 135.501,2090.97ZM113.598,2083.59C113.598,2089.25 116.938,2093.22 121.649,2093.22C125.411,2093.22 128.153,2090.62 128.153,2087C128.153,2082.96 124.813,2080.64 118.942,2080.64L115.391,2080.64C116.692,2076.84 120.419,2074.45 125.27,2074.45C131.598,2074.45 135.782,2078.35 135.782,2084.4L135.782,2089.04L124.637,2095.12C116.622,2099.62 114.653,2104.37 114.653,2107.92C114.653,2113.44 118.696,2116.85 123.899,2116.85C130.649,2116.85 135.465,2111.22 136.766,2101.87L137.258,2101.87L136.872,2107.74C136.555,2113.02 138.946,2116.64 143.376,2116.64C149.774,2116.64 154.028,2108.94 154.204,2097.27L153.501,2097.27C153.219,2102.5 151.286,2105.42 148.016,2105.6L148.016,2083.87C148.016,2074.06 141.548,2067.7 131.633,2067.7C121.508,2067.7 113.598,2074.66 113.598,2083.59Z" style="fill-rule:nonzero;"/>
                <path d="M168.144,2116.85C178.058,2116.85 184.703,2111.12 184.703,2102.54C184.703,2087.81 165.402,2083.41 165.402,2074.38C165.402,2071.5 167.054,2069.7 169.796,2069.7C175.105,2069.7 182.171,2078.74 182.628,2086.93L183.402,2086.93L183.402,2070.44C179.956,2068.97 176.054,2068.16 171.976,2068.16C161.71,2068.16 155.91,2073.04 155.91,2081.45C155.91,2096.63 174.894,2100.92 174.894,2110.84C174.894,2113.86 173.382,2115.34 170.956,2115.34C165.331,2115.34 158.265,2105.35 157.597,2097.16L156.753,2097.16L156.753,2114.67C159.988,2116.04 164.277,2116.85 168.144,2116.85Z" style="fill-rule:nonzero;"/>
                <path d="M203.318,2102.96L203.318,2076.28L212.354,2076.28L212.354,2069.32L203.002,2069.32L203.002,2059.16L202.229,2059.16C201.315,2065.91 194.916,2072.48 185.248,2075.68L185.248,2076.28L190.733,2076.28L190.733,2105.91C190.733,2112.88 194.143,2116.85 200.401,2116.85C208.381,2116.85 212.705,2110.27 212.705,2097.41L211.967,2097.41C211.967,2103.56 209.858,2107.22 206.483,2107.22C204.303,2107.22 203.318,2105.84 203.318,2102.96Z" style="fill-rule:nonzero;"/>
                <path d="M212.97,2115.86L238.809,2115.86L238.809,2114.88L237.016,2114.88C232.516,2114.88 230.477,2112.42 230.477,2107.32L230.477,2087.56C230.477,2080.71 232.763,2074.8 235.962,2073.08L235.962,2075.82C235.962,2080.32 238.634,2083.24 242.325,2083.24C246.087,2083.24 248.864,2080.39 248.864,2076.45C248.899,2071.71 245.805,2068.16 241.376,2068.16C234.38,2068.16 230.618,2074.8 229.352,2084.22L228.86,2084.22C229.704,2078.25 230.196,2072.69 230.196,2068.16L230.196,2067.7L229.704,2067.7C223.587,2069.88 218.032,2071.28 213.005,2071.92L213.005,2072.73C216.485,2072.45 217.645,2073.71 217.645,2077.47L217.645,2108.66C217.645,2112.95 216.204,2115.05 212.97,2115.05L212.97,2115.86Z" style="fill-rule:nonzero;"/>
                <path d="M274.089,2077.33L274.089,2099.06C274.089,2106.23 271.558,2110.2 268.605,2110.2C266.39,2110.2 265.23,2108.45 265.23,2105.32L265.23,2067.7L264.808,2067.7C258.375,2069.88 252.785,2071.25 247.793,2071.92L247.793,2072.55C251.168,2072.3 252.433,2073.53 252.433,2077.33L252.433,2105.95C252.433,2112.84 255.984,2116.88 261.855,2116.88C268.957,2116.88 274.16,2110.94 275.214,2101.77L275.777,2101.77C275.531,2104.47 275.39,2106.05 275.32,2107.78C275.039,2112.98 277.5,2116.6 281.648,2116.6C288.363,2116.6 292.476,2109.01 292.652,2097.27L291.949,2097.27C291.703,2102.43 289.98,2105.46 286.886,2105.6L286.886,2067.7L286.429,2067.7C279.855,2069.91 274.3,2071.28 269.414,2071.92L269.414,2072.55C272.789,2072.3 274.089,2073.53 274.089,2077.33Z" style="fill-rule:nonzero;"/>
                <path d="M327.264,2096.25L326.49,2096.25C326.49,2102.26 322.307,2106.79 316.893,2106.79C310.037,2106.79 305.467,2099.48 305.467,2088.72C305.467,2077.65 310.143,2070.76 316.893,2070.76C319.424,2070.76 321.569,2071.78 323.01,2073.71L316.963,2078C314.573,2079.69 313.342,2081.59 313.342,2083.98C313.342,2087.46 315.803,2090.09 319.073,2090.09C323.397,2090.09 326.877,2085.66 326.877,2080.18C326.877,2074.03 321.99,2068.16 313.764,2068.16C301.916,2068.16 293.619,2078.18 293.619,2093.43C293.619,2107.64 300.967,2116.85 311.83,2116.85C321.674,2116.85 327.264,2109.29 327.264,2096.25Z" style="fill-rule:nonzero;"/>
                <path d="M345.599,2102.96L345.599,2076.28L354.634,2076.28L354.634,2069.32L345.282,2069.32L345.282,2059.16L344.509,2059.16C343.595,2065.91 337.196,2072.48 327.528,2075.68L327.528,2076.28L333.013,2076.28L333.013,2105.91C333.013,2112.88 336.423,2116.85 342.681,2116.85C350.661,2116.85 354.985,2110.27 354.985,2097.41L354.247,2097.41C354.247,2103.56 352.138,2107.22 348.763,2107.22C346.583,2107.22 345.599,2105.84 345.599,2102.96Z" style="fill-rule:nonzero;"/>
                <path d="M381.265,2077.33L381.265,2099.06C381.265,2106.23 378.734,2110.2 375.781,2110.2C373.566,2110.2 372.406,2108.45 372.406,2105.32L372.406,2067.7L371.984,2067.7C365.551,2069.88 359.961,2071.25 354.969,2071.92L354.969,2072.55C358.343,2072.3 359.609,2073.53 359.609,2077.33L359.609,2105.95C359.609,2112.84 363.16,2116.88 369.031,2116.88C376.133,2116.88 381.336,2110.94 382.39,2101.77L382.953,2101.77C382.707,2104.47 382.566,2106.05 382.496,2107.78C382.215,2112.98 384.675,2116.6 388.824,2116.6C395.539,2116.6 399.652,2109.01 399.828,2097.27L399.125,2097.27C398.879,2102.43 397.156,2105.46 394.062,2105.6L394.062,2067.7L393.605,2067.7C387.031,2069.91 381.476,2071.28 376.59,2071.92L376.59,2072.55C379.965,2072.3 381.265,2073.53 381.265,2077.33Z" style="fill-rule:nonzero;"/>
                <path d="M425.334,2077.33L425.334,2099.06C425.334,2106.23 422.803,2110.2 419.85,2110.2C417.635,2110.2 416.475,2108.45 416.475,2105.32L416.475,2067.7L416.053,2067.7C409.62,2069.88 404.03,2071.25 399.038,2071.92L399.038,2072.55C402.413,2072.3 403.678,2073.53 403.678,2077.33L403.678,2105.95C403.678,2112.84 407.229,2116.88 413.1,2116.88C420.202,2116.88 425.405,2110.94 426.459,2101.77L427.022,2101.77C426.776,2104.47 426.635,2106.05 426.565,2107.78C426.284,2112.98 428.745,2116.6 432.893,2116.6C439.608,2116.6 443.721,2109.01 443.897,2097.27L443.194,2097.27C442.948,2102.43 441.225,2105.46 438.131,2105.6L438.131,2067.7L437.674,2067.7C431.1,2069.91 425.545,2071.28 420.659,2071.92L420.659,2072.55C424.034,2072.3 425.334,2073.53 425.334,2077.33Z" style="fill-rule:nonzero;"/>
                <path d="M443.388,2115.86L469.228,2115.86L469.228,2114.88L467.435,2114.88C462.935,2114.88 460.896,2112.42 460.896,2107.32L460.896,2087.56C460.896,2080.71 463.181,2074.8 466.38,2073.08L466.38,2075.82C466.38,2080.32 469.052,2083.24 472.743,2083.24C476.505,2083.24 479.282,2080.39 479.282,2076.45C479.317,2071.71 476.224,2068.16 471.794,2068.16C464.798,2068.16 461.036,2074.8 459.771,2084.22L459.278,2084.22C460.122,2078.25 460.614,2072.69 460.614,2068.16L460.614,2067.7L460.122,2067.7C454.005,2069.88 448.45,2071.28 443.423,2071.92L443.423,2072.73C446.903,2072.45 448.064,2073.71 448.064,2077.47L448.064,2108.66C448.064,2112.95 446.622,2115.05 443.388,2115.05L443.388,2115.86Z" style="fill-rule:nonzero;"/>
                <path d="M-20.209,2167.82L20.326,2167.85L20.713,2166.59L-19.893,2166.66L-20.209,2167.82Z" style="fill-rule:nonzero;"/>
                <path d="M31.894,2191.86L50.843,2191.86L50.843,2191.27C46.413,2191.27 45.429,2189.12 46.8,2183.99L56.468,2147.88C57.839,2142.75 60.265,2140.61 64.695,2140.61L64.695,2140.01L45.816,2140.01L45.816,2140.61C50.245,2140.61 51.195,2142.75 49.823,2147.88L40.156,2183.99C38.784,2189.12 36.324,2191.27 31.894,2191.27L31.894,2191.86Z" style="fill-rule:nonzero;"/>
                <path d="M83.1,2192.5C87.494,2192.5 91.361,2188 94.033,2178.36L93.576,2178.29C92.346,2183 88.373,2187.15 85.244,2187.19L94.103,2155.93C96.142,2148.87 93.611,2144.4 87.564,2144.4C81.271,2144.4 75.928,2149.47 72.201,2159.55L71.814,2159.55C73.186,2155.72 74.1,2153.51 74.627,2151.64C75.787,2147.74 75.189,2144.54 71.322,2144.54C66.787,2144.54 62.99,2149.5 60.494,2158.68L60.916,2158.75C62.217,2153.86 66.365,2149.61 69.564,2149.85L58.209,2191.86L64.361,2191.86L72.271,2162.3C75.014,2152.07 79.971,2148.16 84.189,2148.16C87.986,2148.16 89.428,2151.05 88.057,2155.79L79.725,2184.8C78.424,2189.37 79.408,2192.5 83.1,2192.5Z" style="fill-rule:nonzero;"/>
                <path d="M148.175,2174.07C148.316,2167.96 144.941,2164.02 138.191,2162.4C147.191,2161.42 154.011,2157.41 154.117,2149.78C154.257,2143.45 148.245,2140.01 136.503,2140.01L118.714,2140.01L118.714,2140.61C123.144,2140.61 124.093,2142.75 122.722,2147.88L113.054,2183.99C111.683,2189.12 109.257,2191.27 104.828,2191.27L104.828,2191.86L126.589,2191.86C139.175,2191.86 147.999,2185.32 148.175,2174.07ZM117.906,2190.7L125.394,2162.68L130.843,2162.68C137.734,2162.68 141.32,2166.62 141.074,2173.62C140.792,2182.2 136.257,2190.7 126.449,2190.7L117.906,2190.7ZM125.71,2161.52L131.16,2141.13L136.503,2141.13C143.675,2141.13 147.507,2144.16 147.331,2149.64C147.156,2157.2 141.425,2161.52 133.339,2161.52L125.71,2161.52Z" style="fill-rule:nonzero;"/>
                <path d="M164.049,2192.67C172.24,2192.67 178.182,2186.1 181.029,2173.93L180.467,2173.93C178.393,2182.65 173.682,2187.72 167.74,2187.72C162.361,2187.72 159.69,2183.6 159.69,2175.3C159.69,2172.14 160.076,2168.94 160.744,2165.85C162.361,2166.09 164.119,2166.23 165.912,2166.23C177.162,2166.23 185.424,2160.72 185.424,2153.12C185.424,2147.67 181.1,2144.4 175.756,2144.4C163.803,2144.4 153.08,2160.93 153.08,2177.66C153.08,2187.64 156.912,2192.67 164.049,2192.67ZM160.99,2164.79C163.486,2154.46 169.217,2145.74 174.596,2145.74C177.514,2145.74 179.307,2148.23 179.307,2152.21C179.307,2159.7 173.4,2165.11 165.068,2165.11C163.838,2165.11 162.467,2165 160.99,2164.79Z" style="fill-rule:nonzero;"/>
                <path d="M195.251,2192.67C203.442,2192.67 209.384,2186.1 212.231,2173.93L211.669,2173.93C209.595,2182.65 204.884,2187.72 198.942,2187.72C193.563,2187.72 190.891,2183.6 190.891,2175.3C190.891,2172.14 191.278,2168.94 191.946,2165.85C193.563,2166.09 195.321,2166.23 197.114,2166.23C208.364,2166.23 216.626,2160.72 216.626,2153.12C216.626,2147.67 212.302,2144.4 206.958,2144.4C195.005,2144.4 184.282,2160.93 184.282,2177.66C184.282,2187.64 188.114,2192.67 195.251,2192.67ZM192.192,2164.79C194.688,2154.46 200.419,2145.74 205.798,2145.74C208.716,2145.74 210.509,2148.23 210.509,2152.21C210.509,2159.7 204.602,2165.11 196.27,2165.11C195.04,2165.11 193.669,2165 192.192,2164.79Z" style="fill-rule:nonzero;"/>
                <path d="M216.714,2192.43C221.566,2192.95 225.574,2188 228.246,2178.36L227.789,2178.29C226.523,2183 222.55,2187.19 219.386,2187.19L234.046,2132.41L233.625,2132.41C229.3,2134.28 225.363,2135.47 221.285,2136L221.285,2136.56C225.609,2136.32 226.875,2136.81 225.855,2140.61L213.972,2184.8C212.777,2189.33 213.621,2192.14 216.714,2192.43Z" style="fill-rule:nonzero;"/>
                <path d="M240.393,2192.74C245.948,2192.74 249.569,2188.59 253.682,2178.36L254.174,2178.36L251.713,2185.78C250.588,2189.93 251.502,2192.39 254.737,2192.39C259.553,2192.39 263.772,2186.94 266.303,2177.55L265.846,2177.52C264.475,2182.37 260.115,2186.77 256.846,2186.8L271.436,2132.41L271.014,2132.41C266.69,2134.31 262.752,2135.47 258.815,2136L258.674,2136.56C263.28,2136.32 264.158,2137.09 263.174,2140.61L262.541,2142.93C261.592,2146.34 260.362,2151.96 259.518,2157.76L259.026,2157.76C259.729,2149.18 257.057,2144.4 251.397,2144.4C243.662,2144.4 236.491,2153.4 232.799,2167.92C228.932,2183.22 231.991,2192.74 240.393,2192.74ZM239.268,2167.29C242.467,2155.27 247.073,2148.66 252.24,2148.66C257.373,2148.66 259.307,2154.91 256.951,2163.77L254.244,2173.86C251.713,2183.39 247.494,2189.02 242.819,2189.02C237.123,2189.02 235.752,2180.65 239.268,2167.29Z" style="fill-rule:nonzero;"/>
            </g>
        </g>
    </g>
</svg>
