<?xml version="1.0" encoding="UTF-8"?><svg id="a" xmlns="http://www.w3.org/2000/svg" viewBox="0 0 1113.67 172.3"><g id="b"><path d="M1113.67,82.86v-16.4h-16.72v-12.72l-21.06-6.82v19.54h-11.15v16.4h11.15v27.49c0,22.02,9.16,31.19,30.38,31.19h7.4v-19.61h-4.82c-8.36,0-11.73-4.34-11.9-12.86v-26.2h16.72Z"/><path d="M1037.42,97.33l-12.38-3.21c-4.18-1.13-7.39-2.89-7.39-6.43,0-3.86,3.86-6.59,8.68-6.59s9.16,2.73,9.16,7.88h20.1c.16-17.84-15.92-24.44-29.58-24.44-17.36,0-29.42,10.93-29.42,22.51,0,7.88,2.57,18.65,21.86,23.79l9.97,2.41c5.63,1.45,8.2,3.05,8.2,6.27,0,4.34-4.66,7.39-10.77,7.39-7.4,0-11.09-4.66-11.09-9h-19.77c.16,16.56,15.43,25.56,31.19,25.56s31.51-8.2,31.51-23.95c0-6.11-2.25-17.36-20.26-22.18h0Z"/><path d="M959.78,76.43c-4.98-7.72-14.63-11.9-24.27-11.9-21.54,0-36.65,16.24-36.65,39.55s15.43,39.39,36.17,39.39c10.13,0,19.77-4.98,24.76-12.7v10.77h21.06V66.47h-21.06v9.97h-.01Zm-20.1,47.41c-11.09,0-19.29-9.32-19.29-19.77s8.2-19.93,19.13-19.93,19.61,8.52,19.61,19.93c0,10.77-8.84,19.77-19.45,19.77Z"/><polygon points="908.28 30.77 824.85 30.77 824.85 50.55 855.39 50.55 855.39 141.53 877.74 141.53 877.74 50.55 908.28 50.55 908.28 30.77"/><path d="M744.34,64.53c-21.38,0-40.35,15.75-40.35,39.55s18.97,39.39,40.35,39.39,40.35-15.75,40.35-39.39-18.97-39.55-40.35-39.55h0Zm0,59.32c-10.45,0-18.97-8.2-18.97-19.77s8.52-19.93,18.97-19.93,18.97,8.2,18.97,19.93-8.52,19.77-18.97,19.77Z"/><rect x="668.79" y="66.62" width="21.06" height="74.91"/><path d="M679.24,29.12c-6.63,0-12.23,5.01-12.23,11.5s5.6,11.64,12.23,11.64,12.23-5.16,12.23-11.64-5.45-11.5-12.23-11.5Z"/><path d="M628.9,75.62c-5.3-7.72-15.43-11.09-24.11-11.09-19.29,0-36.81,15.27-36.81,39.39s17.52,39.55,36.81,39.55c8.36,0,18.81-3.54,24.11-11.25v9.32h21.06V30.78h-21.06v44.85h0Zm-20.1,48.22c-10.61,0-19.45-9-19.45-19.93s8.84-19.77,19.45-19.77c9.81,0,19.45,8.2,19.45,19.77s-9.16,19.93-19.45,19.93Z"/><path d="M532.78,106.17c0,13.5-9.32,17.68-16.88,17.68s-14.31-5.47-14.31-17.2v-40.19h-21.06v41.32c-.16,22.51,10.13,35.69,29.74,35.69,7.4,0,19.29-4.34,22.51-14.15v12.22h21.06V66.47h-21.06v39.71h0Z"/><path d="M449.67,44.92l-21.06,6.82v14.72h-11.15v16.4h11.15v27.49c0,22.02,9.16,31.19,30.38,31.19h7.4v-19.61h-4.82c-8.36,0-11.73-4.34-11.9-12.86v-26.2h16.72v-16.4h-16.72v-21.54h0Z"/><path d="M379.04,77.07l-12.38-3.54c-11.57-3.37-12.37-9-12.37-11.73,0-7.4,6.59-13.18,15.27-13.18,7.21,0,12.37,4.31,15.2,9.17l20.77-7.01c-5.08-13.42-19.17-21.94-35.49-21.94-21.22,0-38.26,13.67-38.26,33.44,0,9.97,4.34,24.6,28.61,31.03l13.51,3.86c9.48,2.89,13.98,7.23,13.98,13.34,0,7.88-6.59,13.34-16.55,13.34s-17.18-7.65-19.82-13.39l-19.8,6.59c3.68,15.5,18.56,26.41,38.97,26.41s39.71-12.05,39.71-34.08c0-18.81-14.63-27.33-31.35-32.31h0Z"/><path d="M126.41,93.98l-.4-.13c-9.7-3.16-20.45-3.39-30.9,0l-47.56,15.45L0,124.75l15.45,47.55,47.55-15.45,47.55-15.45,47.55,15.45,47.55,15.45,15.45-47.55-47.55-15.45-47.16-15.32h.02Z"/><path d="M158.12,15.45l-47.55,15.45L63.02,15.45,15.47,0,.02,47.55l47.55,15.45,47.56,15.46c10.44,3.39,21.2,3.16,30.9,0h.03l47.53-15.46,47.55-15.45L205.69,0l-47.55,15.45h-.02Z"/></g></svg>